<svg width="140" height="36" viewBox="0 0 140 36" fill="none" xmlns="http://www.w3.org/2000/svg">
<g clip-path="url(#clip0)">
<path d="M21.5781 34.7585C31.0255 32.5463 36.8908 23.0943 34.6786 13.647C32.4664 4.19958 23.0145 -1.6657 13.5671 0.546481C4.11975 2.75866 -1.74554 12.2106 0.466647 21.658C2.67883 31.1054 12.1308 36.9706 21.5781 34.7585Z" fill="#24B2FA"/>
<path fill-rule="evenodd" clip-rule="evenodd" d="M29.5439 23.9424C29.9031 23.9424 30.1957 24.235 30.1957 24.5942C30.1957 24.7305 30.1525 24.8569 30.0826 24.9633C28.7857 27.1913 26.9468 28.9903 24.7853 30.2407C22.6105 31.4977 20.1098 32.1893 17.516 32.1893C13.5022 32.1893 9.86759 30.5632 7.23721 27.9295C4.60683 25.2991 2.98071 21.6645 2.98071 17.6508C2.98071 13.637 4.60683 10.0024 7.23721 7.37198C9.86759 4.74159 13.5022 3.11548 17.516 3.11548C20.1098 3.11548 22.6105 3.81048 24.7853 5.06416L24.8219 5.08743C26.98 6.34111 28.8157 8.15012 30.1059 10.3848C30.2855 10.694 30.1791 11.0931 29.8698 11.2727C29.5605 11.4522 29.1615 11.3458 28.9819 11.0366C27.8047 8.99809 26.1354 7.35202 24.1701 6.21142L24.1335 6.19146C22.1582 5.05085 19.8837 4.41903 17.516 4.41903C13.8614 4.41903 10.5526 5.90215 8.15834 8.29643C5.76406 10.6907 4.28427 13.9995 4.28427 17.6541C4.28427 21.3087 5.76406 24.6174 8.15834 27.0117C10.5526 29.406 13.8614 30.8891 17.516 30.8891C19.8803 30.8891 22.1549 30.2606 24.1335 29.1167H24.1368C25.7896 28.1623 27.2361 26.8521 28.3568 25.2493H16.6414C16.2823 25.2493 15.9896 24.9566 15.9896 24.5975C15.9896 24.2383 16.2823 23.9457 16.6414 23.9457H29.5439V23.9424ZM32.1643 16.2973V14.3021C32.1643 13.9429 31.8717 13.6503 31.5125 13.6503H21.5896H17.639H7.71607C7.35692 13.6503 7.06429 13.9429 7.06429 14.3021V16.274V16.2973C7.06429 17.827 7.67949 19.2137 8.67378 20.2279C8.68375 20.2412 8.69706 20.2545 8.70703 20.2645C9.72128 21.2788 11.1279 21.9072 12.6775 21.9072C14.2272 21.9072 15.6305 21.2788 16.6481 20.2645C17.6623 19.2503 18.2908 17.8469 18.2908 16.294V14.9505H20.9378V16.294C20.9378 17.8436 21.5663 19.2469 22.5806 20.2645C23.5981 21.2788 24.9981 21.9072 26.5477 21.9072C28.0774 21.9072 29.4674 21.2921 30.4784 20.2978C30.4917 20.2878 30.505 20.2745 30.5183 20.2612C31.5358 19.2503 32.1643 17.8469 32.1643 16.2973ZM22.2414 16.2973C22.2414 17.4878 22.7235 18.5652 23.505 19.3434C24.2832 20.1215 25.3639 20.6037 26.5544 20.6037C27.7316 20.6037 28.7957 20.1348 29.5738 19.3733L29.6005 19.3434C30.3786 18.5652 30.8608 17.4845 30.8608 16.2973V14.9539H22.2414V16.2973ZM16.9872 14.9539H8.36784V16.2973V16.3173C8.37449 17.4878 8.84005 18.5453 9.59824 19.3168L9.62817 19.3467C10.4063 20.1248 11.4871 20.607 12.6742 20.607C13.8647 20.607 14.9421 20.1248 15.7203 19.3467C16.4984 18.5686 16.9806 17.4911 16.9806 16.3006V14.9539H16.9872Z" fill="white"/>
<path fill-rule="evenodd" clip-rule="evenodd" d="M49.6624 24.378H45.5854V11.8048V11.0565V10.9302H49.3298H49.3631C50.7464 10.9302 51.8305 11.2261 52.612 11.8181C53.3901 12.41 53.7825 13.2579 53.7825 14.3586C53.7825 15.4128 53.2239 16.2508 52.1065 16.8627C53.7592 17.438 54.5839 18.6251 54.5839 20.4275C54.5839 21.6379 54.1284 22.599 53.2106 23.3106C52.2961 24.0189 51.1122 24.378 49.6624 24.378ZM47.9531 13.7767V15.3031V16.181H48.974H48.994H49.107C50.65 16.181 51.4215 15.599 51.4215 14.4418C51.4215 13.4142 50.7198 12.9021 49.3165 12.9021H49.3099H47.9531V13.7767ZM47.9531 18.8446V21.5814V22.4593H49.0472H49.117C50.1712 22.4593 50.936 22.2797 51.4115 21.9239C51.8871 21.5681 52.1265 20.9728 52.1265 20.1448C52.1265 19.3866 51.907 18.8346 51.4614 18.4888C51.0225 18.1463 50.251 17.97 49.1536 17.97V17.9667H47.9498L47.9531 18.8446Z" fill="#010005"/>
<path fill-rule="evenodd" clip-rule="evenodd" d="M58.9868 10.927C58.9868 14.2358 58.9868 17.5478 58.9868 20.8566C59.0001 22.2865 59.459 22.8917 60.2438 24.3782C59.4125 24.3782 58.5844 24.3782 57.7531 24.3782C56.9018 23.2476 56.7156 22.1169 56.7156 21.0195V10.927H58.9868Z" fill="#010005"/>
<path fill-rule="evenodd" clip-rule="evenodd" d="M61.4043 19.4831C61.4043 17.9967 61.8333 16.7862 62.6879 15.8518C63.5458 14.9174 64.6765 14.4485 66.0831 14.4485C67.5596 14.4485 68.7068 14.8974 69.5249 15.7953C70.3429 16.6931 70.752 17.9202 70.752 19.4831C70.752 21.0361 70.3363 22.2698 69.5049 23.1876C68.6703 24.1021 67.5297 24.5643 66.0831 24.5643C64.6033 24.5643 63.4527 24.1021 62.6347 23.1776C61.8133 22.2498 61.4043 21.0161 61.4043 19.4831ZM63.7686 19.4831C63.7686 21.628 64.5401 22.6988 66.0831 22.6988C66.7914 22.6988 67.3501 22.4194 67.7658 21.8641C68.1781 21.3054 68.3876 20.5107 68.3876 19.4831C68.3876 17.3682 67.6194 16.3107 66.0831 16.3107C65.3715 16.3107 64.8095 16.59 64.3938 17.1454C63.9781 17.704 63.7686 18.4855 63.7686 19.4831Z" fill="#010005"/>
<path fill-rule="evenodd" clip-rule="evenodd" d="M80.6584 15.3997L79.6874 17.0956C79.152 16.6001 78.4404 16.3507 77.5425 16.3507C76.6813 16.3507 76.0029 16.6367 75.5041 17.212C75.0053 17.7873 74.7559 18.5821 74.7559 19.5963C74.7559 21.6414 75.7269 22.6656 77.6756 22.6656C78.5169 22.6656 79.2584 22.3863 79.9002 21.8276L80.7349 23.6167C80.0732 24.029 79.4979 24.2951 79.0024 24.4015C78.5102 24.5112 77.925 24.5678 77.2532 24.5678C75.7468 24.5678 74.563 24.1288 73.6917 23.2509C72.8238 22.3763 72.3882 21.1559 72.3882 19.5963C72.3882 18.06 72.8637 16.8163 73.8148 15.8719C74.7658 14.9241 76.0627 14.4519 77.7055 14.4519C78.8394 14.4486 79.8237 14.7645 80.6584 15.3997Z" fill="#010005"/>
<path fill-rule="evenodd" clip-rule="evenodd" d="M84.6023 21.1193V22.4594V24.3782H82.3311V10.927H84.6023V17.6875V18.3825V21.1193Z" fill="#010005"/>
<path fill-rule="evenodd" clip-rule="evenodd" d="M88.5897 24.3782L84.6025 19.3269L87.8914 14.6448H90.4153L87.2263 19.1573L91.4163 24.3782H88.5897Z" fill="#010005"/>
<path fill-rule="evenodd" clip-rule="evenodd" d="M109.659 20.2047H104.797C104.84 20.9796 105.106 21.5848 105.598 22.0171C106.087 22.4494 106.749 22.6622 107.584 22.6622C108.625 22.6622 109.413 22.3962 109.951 21.8608L110.833 23.5933C110.031 24.2384 108.841 24.561 107.251 24.561C105.768 24.561 104.594 24.1254 103.726 23.2541C102.862 22.3862 102.433 21.1691 102.433 19.6095C102.433 18.0732 102.908 16.8295 103.856 15.8751C104.807 14.9207 105.941 14.4485 107.271 14.4485C108.684 14.4485 109.818 14.8708 110.67 15.7155C111.424 16.4603 111.847 17.3848 111.933 18.4922H109.659C109.499 17.0656 108.714 16.3506 107.301 16.3506C106.007 16.3506 105.203 17.0656 104.89 18.4922H109.659V20.2047V20.2047Z" fill="#24B2FA"/>
<path fill-rule="evenodd" clip-rule="evenodd" d="M133.203 23.7531L134.011 21.9374C134.689 22.4828 135.458 22.7555 136.312 22.7555C137.197 22.7555 137.639 22.4395 137.639 21.8077C137.639 21.4353 137.506 21.1293 137.24 20.8932C136.974 20.6571 136.458 20.3745 135.687 20.0552C134.008 19.3569 133.17 18.3792 133.17 17.1223C133.17 16.2776 133.489 15.6225 134.131 15.1503C134.773 14.6814 135.594 14.4453 136.591 14.4453C137.602 14.4453 138.553 14.6714 139.445 15.1237L138.793 16.8828C138.297 16.4605 137.606 16.251 136.721 16.251C135.93 16.251 135.531 16.5669 135.531 17.1987C135.531 17.4515 135.66 17.6743 135.923 17.8738C136.182 18.0733 136.741 18.3427 137.592 18.6819C138.45 19.0177 139.066 19.4267 139.438 19.9056C139.814 20.3878 140 20.9664 140 21.6448C140 22.5526 139.664 23.2609 138.996 23.7797C138.327 24.2984 137.42 24.5578 136.266 24.5578C135.617 24.5578 135.095 24.5046 134.706 24.3982C134.317 24.2951 133.815 24.079 133.203 23.7531Z" fill="#24B2FA"/>
<path fill-rule="evenodd" clip-rule="evenodd" d="M120.144 20.2047H115.282C115.325 20.9796 115.591 21.5848 116.084 22.0171C116.572 22.4494 117.234 22.6622 118.069 22.6622C119.11 22.6622 119.898 22.3962 120.436 21.8608L121.318 23.5933C120.516 24.2384 119.326 24.561 117.736 24.561C116.253 24.561 115.079 24.1254 114.211 23.2541C113.347 22.3862 112.918 21.1691 112.918 19.6095C112.918 18.0732 113.393 16.8295 114.341 15.8751C115.292 14.9207 116.426 14.4485 117.756 14.4485C119.169 14.4485 120.3 14.8708 121.155 15.7155C121.91 16.4603 122.332 17.3848 122.418 18.4922H120.144C119.984 17.0656 119.199 16.3506 117.786 16.3506C116.493 16.3506 115.688 17.0656 115.375 18.4922H120.144V20.2047V20.2047Z" fill="#24B2FA"/>
<path fill-rule="evenodd" clip-rule="evenodd" d="M126.086 21.1193V22.4594V24.3782H123.812V10.927H126.086V17.6875V18.3825V21.1193Z" fill="#24B2FA"/>
<path fill-rule="evenodd" clip-rule="evenodd" d="M130.074 24.3782L126.086 19.3269L129.372 14.6448H131.896L128.71 19.1573L132.9 24.3782H130.074Z" fill="#24B2FA"/>
<path fill-rule="evenodd" clip-rule="evenodd" d="M93.8767 19.5929C93.8767 20.7601 94.1926 21.5948 94.8244 22.0969C95.6957 22.7886 97.365 22.8917 98.2429 22.3829V16.8594C97.8306 16.4836 97.2653 16.314 96.69 16.3207C94.7779 16.3373 93.8767 17.8204 93.8767 19.5929ZM98.2429 24.3681C97.1156 24.6674 95.4297 24.6342 94.3356 24.2251C93.7503 24.0057 93.2449 23.6798 92.8126 23.2441C91.9447 22.3696 91.509 21.1491 91.509 19.5895C91.509 18.0532 91.9846 16.8095 92.9356 15.8651C95.0107 13.7967 98.7251 14.0129 100.597 16.2542V23.5634C100.597 24.5543 100.641 25.4655 100.295 26.4398C99.3569 29.0702 96.4572 29.7187 93.9864 29.1733C93.4943 29.0636 92.9157 28.8009 92.2539 28.3885L93.0886 26.5995C93.7304 27.1581 94.4719 27.4375 95.3133 27.4375C97.4515 27.4375 98.2263 26.3301 98.2429 24.3681Z" fill="#24B2FA"/>
</g>
<defs>
<clipPath id="clip0">
<rect width="140" height="35.2794" fill="white"/>
</clipPath>
</defs>
</svg>
