<svg width="32" height="32" viewBox="0 0 32 32" fill="none" xmlns="http://www.w3.org/2000/svg">
<path d="M19.7011 31.484C28.1975 29.4945 33.4724 20.994 31.4829 12.4976C29.4934 4.0012 20.9929 -1.27369 12.4965 0.715817C4.0001 2.70532 -1.27479 11.2058 0.714718 19.7022C2.70422 28.1986 11.2047 33.4735 19.7011 31.484Z" fill="#24B2FA"/>
<path fill-rule="evenodd" clip-rule="evenodd" d="M26.8651 21.7568C27.188 21.7568 27.4512 22.02 27.4512 22.343C27.4512 22.4656 27.4123 22.5793 27.3495 22.675C26.1832 24.6787 24.5294 26.2966 22.5854 27.4211C20.6295 28.5516 18.3806 29.1737 16.0479 29.1737C12.4381 29.1737 9.16935 27.7112 6.80375 25.3426C4.43814 22.977 2.97571 19.7082 2.97571 16.0985C2.97571 12.4888 4.43814 9.22001 6.80375 6.8544C9.16935 4.4888 12.4381 3.02637 16.0479 3.02637C18.3806 3.02637 20.6295 3.65141 22.5854 4.77889L22.6183 4.79983C24.5593 5.9273 26.2101 7.55422 27.3705 9.56394C27.532 9.84207 27.4363 10.2009 27.1581 10.3624C26.88 10.5239 26.5211 10.4282 26.3596 10.1501C25.3009 8.31683 23.7996 6.83646 22.0322 5.81067L21.9993 5.79272C20.2228 4.76693 18.1772 4.1987 16.0479 4.1987C12.7611 4.1987 9.78543 5.53254 7.63216 7.68581C5.47889 9.83908 4.14804 12.8148 4.14804 16.1015C4.14804 19.3882 5.47889 22.3639 7.63216 24.5172C9.78543 26.6705 12.7611 28.0043 16.0479 28.0043C18.1742 28.0043 20.2198 27.4391 21.9993 26.4103H22.0023C23.4886 25.552 24.7895 24.3737 25.7974 22.9322H15.2613C14.9383 22.9322 14.6751 22.669 14.6751 22.346C14.6751 22.023 14.9383 21.7598 15.2613 21.7598H26.8651V21.7568ZM29.2217 14.8813V13.0869C29.2217 12.7639 28.9585 12.5008 28.6355 12.5008H19.7114H16.1585H7.2344C6.91141 12.5008 6.64823 12.7639 6.64823 13.0869V14.8604V14.8813C6.64823 16.257 7.2015 17.5041 8.09571 18.4163C8.10468 18.4282 8.11664 18.4402 8.12562 18.4492C9.03776 19.3613 10.3028 19.9266 11.6965 19.9266C13.0901 19.9266 14.3522 19.3613 15.2673 18.4492C16.1794 17.537 16.7447 16.275 16.7447 14.8783V13.6701H19.1252V14.8783C19.1252 16.272 19.6905 17.534 20.6026 18.4492C21.5178 19.3613 22.7768 19.9266 24.1705 19.9266C25.5462 19.9266 26.7963 19.3733 27.7054 18.4791C27.7174 18.4701 27.7294 18.4581 27.7413 18.4462C28.6565 17.537 29.2217 16.275 29.2217 14.8813ZM20.2976 14.8813C20.2976 15.952 20.7312 16.9209 21.434 17.6208C22.1338 18.3206 23.1058 18.7542 24.1765 18.7542C25.2351 18.7542 26.1922 18.3325 26.892 17.6477L26.9159 17.6208C27.6157 16.9209 28.0494 15.949 28.0494 14.8813V13.6731H20.2976V14.8813ZM15.5723 13.6731H7.82057V14.8813V14.8993C7.82655 15.952 8.24524 16.903 8.92711 17.5968L8.95403 17.6238C9.65384 18.3236 10.6258 18.7572 11.6935 18.7572C12.7641 18.7572 13.7331 18.3236 14.4329 17.6238C15.1327 16.9239 15.5664 15.955 15.5664 14.8843V13.6731H15.5723Z" fill="white"/>
</svg>
